<?xml version="1.0" encoding="utf-8"?>
<!-- Generator: Adobe Illustrator 13.0.0, SVG Export Plug-In  -->
<!DOCTYPE svg PUBLIC "-//W3C//DTD SVG 1.1//EN" "http://www.w3.org/Graphics/SVG/1.1/DTD/svg11.dtd" [
	<!ENTITY ns_flows "http://ns.adobe.com/Flows/1.0/">
]>
<svg version="1.1"
	 xmlns="http://www.w3.org/2000/svg" xmlns:xlink="http://www.w3.org/1999/xlink" xmlns:a="http://ns.adobe.com/AdobeSVGViewerExtensions/3.0/"
	 x="0px" y="0px" width="153px" height="138px" viewBox="646.533 1.5 153 138" enable-background="new 646.533 1.5 153 138"
	 xml:space="preserve">
<defs>
</defs>
<path fill-rule="evenodd" clip-rule="evenodd" fill="#015581" d="M0.783,0c275.8,0,551.56,0,827.365,0c0,52.757,0,105.515,0,158.272
	c-276.047,0-552.057,0-828.115,0c0-52.008,0-104.015,0-156.022C-0.031,1.186-0.091,0.126,0.783,0z M132.802,70.51
	c0-14.821,1.467-30.821,0-39.755c-3.811-23.209-30.208-18.002-55.508-18.002c-13.958,0-31.171-2.07-43.506,0
	C11.835,16.437,16.536,42.074,16.536,69.76c0,15.019-1.941,29.765,0,40.506c4.699,25.997,32.938,15.944,62.258,18.002
	c0-15.002,0-30.004,0-45.006c-5,0-10.001,0-15.002,0c0.494-5.507-0.991-12.993,0.75-17.252c4.751,0,9.501,0,14.252,0
	c-4.179-27.237,9.258-40.675,35.255-35.255c-0.492,4.759,0.989,11.49-0.75,15.002c-5.938-0.187-11.609-0.108-15.002,2.25
	c-2.777,3.724-1.002,12-1.5,18.002c5.75,0,11.501,0,17.252,0c-1.872,4.88-0.87,12.632-3,17.252c-4.751,0-9.501,0-14.252,0
	c0,15.002,0,30.004,0,45.006C137.027,133.7,132.802,107.253,132.802,70.51z M178.558,69.01c0,15.464-3.207,30.979,0.75,44.256
	c5.803,19.47,32.024,15.002,57.758,15.002c13.473,0,34.362,2.985,45.006-1.5c16.301-6.869,12.751-31.643,12.751-57.758
	c0-17.188,3.879-32.479-2.25-45.006c-7.538-15.405-28.338-11.251-52.507-11.251c-15.78,0-32.837-1.93-45.006,0.75
	C173.495,18.251,178.558,39.948,178.558,69.01z M340.581,69.01c0,15.464-3.207,30.979,0.75,44.256
	c5.803,19.47,32.023,15.002,57.758,15.002c13.473,0,34.362,2.985,45.006-1.5c16.301-6.869,12.752-31.643,12.752-57.758
	c0-17.188,3.88-32.479-2.25-45.006c-7.537-15.405-28.338-11.251-52.507-11.251c-15.78,0-32.837-1.93-45.006,0.75
	C335.517,18.251,340.581,39.948,340.581,69.01z M502.604,69.01c0,15.464-3.207,30.979,0.75,44.256
	c5.803,19.47,32.023,15.002,57.758,15.002c13.473,0,34.362,2.985,45.007-1.5c16.301-6.869,12.751-31.643,12.751-57.758
	c0-17.188,3.88-32.479-2.25-45.006c-7.537-15.405-28.338-11.251-52.507-11.251c-15.78,0-32.838-1.93-45.007,0.75
	C497.54,18.251,502.604,39.948,502.604,69.01z M664.626,66.759c0,15.254-0.211,37.61,6.001,47.256
	c9.076,14.095,28.5,14.252,51.757,14.252c18.603,0,33.1,1.083,43.506-5.25c15.449-9.403,15.003-30.308,15.003-56.258
	c0-16.42-0.27-34.094-8.252-43.506C761.17,9.727,723.42,9.848,694.63,13.502C666.487,17.074,664.626,38.971,664.626,66.759z"/>
<path fill-rule="evenodd" clip-rule="evenodd" fill="#FFFFFF" d="M694.63,13.502c28.79-3.654,66.54-3.775,78.011,9.751
	c7.982,9.412,8.252,27.086,8.252,43.506c0,25.951,0.446,46.855-15.003,56.258c-10.406,6.333-24.903,5.25-43.506,5.25
	c-23.257,0-42.681-0.157-51.757-14.252c-6.212-9.646-6.001-32.002-6.001-47.256C664.626,38.971,666.487,17.074,694.63,13.502z
	 M675.127,65.259c0,16.271-1.119,40.854,9.002,48.006c9.948,7.032,63.773,7.47,75.01,1.5c12.507-6.644,11.487-27.031,11.252-49.506
	c-0.148-14.162-0.089-30.272-7.501-36.755c-10.239-8.956-36.864-5.465-53.258-5.25C677.064,23.679,675.127,34.69,675.127,65.259z"/>
<path fill-rule="evenodd" clip-rule="evenodd" fill="#015581" d="M709.632,23.253c16.394-0.214,43.019-3.706,53.258,5.25
	c7.412,6.483,7.353,22.593,7.501,36.755c0.235,22.475,1.255,42.863-11.252,49.506c-11.236,5.97-65.062,5.532-75.01-1.5
	c-10.121-7.152-9.002-31.735-9.002-48.006C675.127,34.69,677.064,23.679,709.632,23.253z M753.139,46.506
	c8.991,0.511,11.067-17.352-1.501-13.502C742.369,35.844,747.935,46.211,753.139,46.506z M693.13,76.511
	c4.615,30.239,48.534,29.807,57.758,5.251c8.745-23.282-10.512-43.97-33.004-40.506C701.141,43.834,690.417,58.735,693.13,76.511z"
	/>
<path fill-rule="evenodd" clip-rule="evenodd" fill="#FFFFFF" d="M751.638,33.004c12.568-3.85,10.492,14.013,1.501,13.502
	C747.935,46.211,742.369,35.844,751.638,33.004z"/>
<path fill-rule="evenodd" clip-rule="evenodd" fill="#FFFFFF" d="M717.884,41.256c22.492-3.464,41.749,17.224,33.004,40.506
	c-9.224,24.556-53.143,24.988-57.758-5.251C690.417,58.735,701.141,43.834,717.884,41.256z M704.382,77.261
	c6.364,19.438,41.284,15.091,37.505-10.501c-1.539-10.422-10.592-17.03-22.503-15.002C706.906,53.881,700.202,64.497,704.382,77.261
	z"/>
<path fill-rule="evenodd" clip-rule="evenodd" fill="#015581" d="M719.384,51.757c11.911-2.028,20.964,4.58,22.503,15.002
	c3.779,25.592-31.141,29.939-37.505,10.501C700.202,64.497,706.906,53.881,719.384,51.757z"/>
</svg>
