<?xml version="1.0" encoding="utf-8"?>
<!-- Generator: Adobe Illustrator 13.0.0, SVG Export Plug-In  -->
<!DOCTYPE svg PUBLIC "-//W3C//DTD SVG 1.1//EN" "http://www.w3.org/Graphics/SVG/1.1/DTD/svg11.dtd" [
	<!ENTITY ns_flows "http://ns.adobe.com/Flows/1.0/">
]>
<svg version="1.1"
	 xmlns="http://www.w3.org/2000/svg" xmlns:xlink="http://www.w3.org/1999/xlink" xmlns:a="http://ns.adobe.com/AdobeSVGViewerExtensions/3.0/"
	 x="0px" y="0px" width="153px" height="138px" viewBox="158.533 1.5 153 138" enable-background="new 158.533 1.5 153 138"
	 xml:space="preserve">
<defs>
</defs>
<path fill-rule="evenodd" clip-rule="evenodd" fill="#015581" d="M0.783,0c275.8,0,551.56,0,827.365,0c0,52.757,0,105.515,0,158.272
	c-276.047,0-552.057,0-828.115,0c0-52.008,0-104.015,0-156.022C-0.031,1.186-0.091,0.126,0.783,0z M132.802,70.51
	c0-14.821,1.467-30.821,0-39.755c-3.811-23.209-30.208-18.002-55.508-18.002c-13.958,0-31.171-2.07-43.506,0
	C11.835,16.437,16.536,42.074,16.536,69.76c0,15.019-1.941,29.765,0,40.506c4.699,25.997,32.938,15.944,62.258,18.002
	c0-15.002,0-30.004,0-45.006c-5,0-10.001,0-15.002,0c0.494-5.507-0.991-12.993,0.75-17.252c4.751,0,9.501,0,14.252,0
	c-4.179-27.237,9.258-40.675,35.255-35.255c-0.492,4.759,0.989,11.49-0.75,15.002c-5.938-0.187-11.609-0.108-15.002,2.25
	c-2.777,3.724-1.002,12-1.5,18.002c5.75,0,11.501,0,17.252,0c-1.872,4.88-0.87,12.632-3,17.252c-4.751,0-9.501,0-14.252,0
	c0,15.002,0,30.004,0,45.006C137.027,133.7,132.802,107.253,132.802,70.51z M178.558,69.01c0,15.464-3.207,30.979,0.75,44.256
	c5.803,19.47,32.024,15.002,57.758,15.002c13.473,0,34.362,2.985,45.006-1.5c16.301-6.869,12.751-31.643,12.751-57.758
	c0-17.188,3.879-32.479-2.25-45.006c-7.538-15.405-28.338-11.251-52.507-11.251c-15.78,0-32.837-1.93-45.006,0.75
	C173.495,18.251,178.558,39.948,178.558,69.01z M340.581,69.01c0,15.464-3.207,30.979,0.75,44.256
	c5.803,19.47,32.023,15.002,57.758,15.002c13.473,0,34.362,2.985,45.006-1.5c16.301-6.869,12.752-31.643,12.752-57.758
	c0-17.188,3.88-32.479-2.25-45.006c-7.537-15.405-28.338-11.251-52.507-11.251c-15.78,0-32.837-1.93-45.006,0.75
	C335.517,18.251,340.581,39.948,340.581,69.01z M502.604,69.01c0,15.464-3.207,30.979,0.75,44.256
	c5.803,19.47,32.023,15.002,57.758,15.002c13.473,0,34.362,2.985,45.007-1.5c16.301-6.869,12.751-31.643,12.751-57.758
	c0-17.188,3.88-32.479-2.25-45.006c-7.537-15.405-28.338-11.251-52.507-11.251c-15.78,0-32.838-1.93-45.007,0.75
	C497.54,18.251,502.604,39.948,502.604,69.01z M664.626,66.759c0,15.254-0.211,37.61,6.001,47.256
	c9.076,14.095,28.5,14.252,51.757,14.252c18.603,0,33.1,1.083,43.506-5.25c15.449-9.403,15.003-30.308,15.003-56.258
	c0-16.42-0.27-34.094-8.252-43.506C761.17,9.727,723.42,9.848,694.63,13.502C666.487,17.074,664.626,38.971,664.626,66.759z"/>
<path fill-rule="evenodd" clip-rule="evenodd" fill="#FFFFFF" d="M195.061,13.502c12.169-2.68,29.226-0.75,45.006-0.75
	c24.169,0,44.97-4.153,52.507,11.251c6.129,12.528,2.25,27.819,2.25,45.006c0,26.115,3.549,50.889-12.751,57.758
	c-10.644,4.485-31.534,1.5-45.006,1.5c-25.734,0-51.956,4.468-57.758-15.002c-3.957-13.276-0.75-28.792-0.75-44.256
	C178.558,39.948,173.495,18.251,195.061,13.502z M235.566,60.758c-15.526-0.726-23.906-8.598-33.004-15.752
	c-4.101,7.602,1.517,17.108,3.75,20.253c-2.701,0.2-3.615-1.386-6.001-1.5c0.871,8.38,6.056,12.447,12.002,15.752
	c-2.992,0.412-2.259,0.412-5.251,0c1.611,6.641,7.259,9.243,13.502,11.252c-3.777,5.474-13.261,5.241-20.253,7.501
	c31.495,15.28,68.382-4.046,66.759-40.506c2.053-3.198,5.448-5.053,7.501-8.251c-2.656,0.344-4.332,1.668-7.501,1.5
	c1.769-2.482,4.734-3.768,5.251-7.501c-2.952,1.049-5.933,2.069-9.001,3C253.022,34.697,232.059,45.653,235.566,60.758z"/>
<path fill-rule="evenodd" clip-rule="evenodd" fill="#015581" d="M263.32,46.506c3.069-0.932,6.05-1.951,9.001-3
	c-0.517,3.734-3.482,5.02-5.251,7.501c3.169,0.168,4.845-1.157,7.501-1.5c-2.053,3.198-5.448,5.053-7.501,8.251
	c1.623,36.46-35.265,55.786-66.759,40.506c6.992-2.26,16.476-2.027,20.253-7.501c-6.243-2.009-11.891-4.611-13.502-11.252
	c2.992,0.412,2.259,0.412,5.251,0c-5.946-3.305-11.131-7.372-12.002-15.752c2.386,0.115,3.3,1.701,6.001,1.5
	c-2.233-3.145-7.852-12.651-3.75-20.253c9.099,7.154,17.479,15.026,33.004,15.752C232.059,45.653,253.022,34.697,263.32,46.506z"/>
</svg>
