<?xml version="1.0" encoding="utf-8"?>
<!-- Generator: Adobe Illustrator 13.0.0, SVG Export Plug-In  -->
<!DOCTYPE svg PUBLIC "-//W3C//DTD SVG 1.1//EN" "http://www.w3.org/Graphics/SVG/1.1/DTD/svg11.dtd" [
	<!ENTITY ns_flows "http://ns.adobe.com/Flows/1.0/">
]>
<svg version="1.1"
	 xmlns="http://www.w3.org/2000/svg" xmlns:xlink="http://www.w3.org/1999/xlink" xmlns:a="http://ns.adobe.com/AdobeSVGViewerExtensions/3.0/"
	 x="0px" y="0px" width="153px" height="138px" viewBox="1.533 1.5 153 138" enable-background="new 1.533 1.5 153 138"
	 xml:space="preserve">
<defs>
</defs>
<path fill-rule="evenodd" clip-rule="evenodd" fill="#015581" d="M0.783,0c275.8,0,551.56,0,827.365,0c0,52.757,0,105.515,0,158.272
	c-276.047,0-552.057,0-828.115,0c0-52.008,0-104.015,0-156.022C-0.031,1.186-0.091,0.126,0.783,0z M132.802,70.51
	c0-14.821,1.467-30.821,0-39.755c-3.811-23.209-30.208-18.002-55.508-18.002c-13.958,0-31.171-2.07-43.506,0
	C11.835,16.437,16.536,42.074,16.536,69.76c0,15.019-1.941,29.765,0,40.506c4.699,25.997,32.938,15.944,62.258,18.002
	c0-15.002,0-30.004,0-45.006c-5,0-10.001,0-15.002,0c0.494-5.507-0.991-12.993,0.75-17.252c4.751,0,9.501,0,14.252,0
	c-4.179-27.237,9.258-40.675,35.255-35.255c-0.492,4.759,0.989,11.49-0.75,15.002c-5.938-0.187-11.609-0.108-15.002,2.25
	c-2.777,3.724-1.002,12-1.5,18.002c5.75,0,11.501,0,17.252,0c-1.872,4.88-0.87,12.632-3,17.252c-4.751,0-9.501,0-14.252,0
	c0,15.002,0,30.004,0,45.006C137.027,133.7,132.802,107.253,132.802,70.51z M178.558,69.01c0,15.464-3.207,30.979,0.75,44.256
	c5.803,19.47,32.024,15.002,57.758,15.002c13.473,0,34.362,2.985,45.006-1.5c16.301-6.869,12.751-31.643,12.751-57.758
	c0-17.188,3.879-32.479-2.25-45.006c-7.538-15.405-28.338-11.251-52.507-11.251c-15.78,0-32.837-1.93-45.006,0.75
	C173.495,18.251,178.558,39.948,178.558,69.01z M340.581,69.01c0,15.464-3.207,30.979,0.75,44.256
	c5.803,19.47,32.023,15.002,57.758,15.002c13.473,0,34.362,2.985,45.006-1.5c16.301-6.869,12.752-31.643,12.752-57.758
	c0-17.188,3.88-32.479-2.25-45.006c-7.537-15.405-28.338-11.251-52.507-11.251c-15.78,0-32.837-1.93-45.006,0.75
	C335.517,18.251,340.581,39.948,340.581,69.01z M502.604,69.01c0,15.464-3.207,30.979,0.75,44.256
	c5.803,19.47,32.023,15.002,57.758,15.002c13.473,0,34.362,2.985,45.007-1.5c16.301-6.869,12.751-31.643,12.751-57.758
	c0-17.188,3.88-32.479-2.25-45.006c-7.537-15.405-28.338-11.251-52.507-11.251c-15.78,0-32.838-1.93-45.007,0.75
	C497.54,18.251,502.604,39.948,502.604,69.01z M664.626,66.759c0,15.254-0.211,37.61,6.001,47.256
	c9.076,14.095,28.5,14.252,51.757,14.252c18.603,0,33.1,1.083,43.506-5.25c15.449-9.403,15.003-30.308,15.003-56.258
	c0-16.42-0.27-34.094-8.252-43.506C761.17,9.727,723.42,9.848,694.63,13.502C666.487,17.074,664.626,38.971,664.626,66.759z"/>
<path fill-rule="evenodd" clip-rule="evenodd" fill="#FFFFFF" d="M96.797,128.268c0-15.002,0-30.004,0-45.006
	c4.75,0,9.501,0,14.252,0c2.13-4.621,1.129-12.373,3-17.252c-5.751,0-11.502,0-17.252,0c0.498-6.003-1.277-14.279,1.5-18.002
	c3.393-2.358,9.064-2.438,15.002-2.25c1.739-3.512,0.259-10.243,0.75-15.002c-25.997-5.42-39.435,8.018-35.255,35.255
	c-4.75,0-9.501,0-14.252,0c-1.741,4.259-0.256,11.745-0.75,17.252c5.001,0,10.001,0,15.002,0c0,15.002,0,30.004,0,45.006
	c-29.32-2.058-57.56,7.995-62.258-18.002c-1.941-10.741,0-25.487,0-40.506c0-27.686-4.701-53.323,17.252-57.008
	c12.335-2.07,29.548,0,43.506,0c25.3,0,51.697-5.207,55.508,18.002c1.467,8.934,0,24.934,0,39.755
	C132.802,107.253,137.027,133.7,96.797,128.268z"/>
</svg>
