<?xml version="1.0" encoding="utf-8"?>
<!-- Generator: Adobe Illustrator 13.0.0, SVG Export Plug-In  -->
<!DOCTYPE svg PUBLIC "-//W3C//DTD SVG 1.1//EN" "http://www.w3.org/Graphics/SVG/1.1/DTD/svg11.dtd" [
	<!ENTITY ns_flows "http://ns.adobe.com/Flows/1.0/">
]>
<svg version="1.1"
	 xmlns="http://www.w3.org/2000/svg" xmlns:xlink="http://www.w3.org/1999/xlink" xmlns:a="http://ns.adobe.com/AdobeSVGViewerExtensions/3.0/"
	 x="0px" y="0px" width="153px" height="138px" viewBox="483.533 1.5 153 138" enable-background="new 483.533 1.5 153 138"
	 xml:space="preserve">
<defs>
</defs>
<path fill-rule="evenodd" clip-rule="evenodd" fill="#015581" d="M0.783,0c275.8,0,551.56,0,827.365,0c0,52.757,0,105.515,0,158.272
	c-276.047,0-552.057,0-828.115,0c0-52.008,0-104.015,0-156.022C-0.031,1.186-0.091,0.126,0.783,0z M132.802,70.51
	c0-14.821,1.467-30.821,0-39.755c-3.811-23.209-30.208-18.002-55.508-18.002c-13.958,0-31.171-2.07-43.506,0
	C11.835,16.437,16.536,42.074,16.536,69.76c0,15.019-1.941,29.765,0,40.506c4.699,25.997,32.938,15.944,62.258,18.002
	c0-15.002,0-30.004,0-45.006c-5,0-10.001,0-15.002,0c0.494-5.507-0.991-12.993,0.75-17.252c4.751,0,9.501,0,14.252,0
	c-4.179-27.237,9.258-40.675,35.255-35.255c-0.492,4.759,0.989,11.49-0.75,15.002c-5.938-0.187-11.609-0.108-15.002,2.25
	c-2.777,3.724-1.002,12-1.5,18.002c5.75,0,11.501,0,17.252,0c-1.872,4.88-0.87,12.632-3,17.252c-4.751,0-9.501,0-14.252,0
	c0,15.002,0,30.004,0,45.006C137.027,133.7,132.802,107.253,132.802,70.51z M178.558,69.01c0,15.464-3.207,30.979,0.75,44.256
	c5.803,19.47,32.024,15.002,57.758,15.002c13.473,0,34.362,2.985,45.006-1.5c16.301-6.869,12.751-31.643,12.751-57.758
	c0-17.188,3.879-32.479-2.25-45.006c-7.538-15.405-28.338-11.251-52.507-11.251c-15.78,0-32.837-1.93-45.006,0.75
	C173.495,18.251,178.558,39.948,178.558,69.01z M340.581,69.01c0,15.464-3.207,30.979,0.75,44.256
	c5.803,19.47,32.023,15.002,57.758,15.002c13.473,0,34.362,2.985,45.006-1.5c16.301-6.869,12.752-31.643,12.752-57.758
	c0-17.188,3.88-32.479-2.25-45.006c-7.537-15.405-28.338-11.251-52.507-11.251c-15.78,0-32.837-1.93-45.006,0.75
	C335.517,18.251,340.581,39.948,340.581,69.01z M502.604,69.01c0,15.464-3.207,30.979,0.75,44.256
	c5.803,19.47,32.023,15.002,57.758,15.002c13.473,0,34.362,2.985,45.007-1.5c16.301-6.869,12.751-31.643,12.751-57.758
	c0-17.188,3.88-32.479-2.25-45.006c-7.537-15.405-28.338-11.251-52.507-11.251c-15.78,0-32.838-1.93-45.007,0.75
	C497.54,18.251,502.604,39.948,502.604,69.01z M664.626,66.759c0,15.254-0.211,37.61,6.001,47.256
	c9.076,14.095,28.5,14.252,51.757,14.252c18.603,0,33.1,1.083,43.506-5.25c15.449-9.403,15.003-30.308,15.003-56.258
	c0-16.42-0.27-34.094-8.252-43.506C761.17,9.727,723.42,9.848,694.63,13.502C666.487,17.074,664.626,38.971,664.626,66.759z"/>
<path fill-rule="evenodd" clip-rule="evenodd" fill="#FFFFFF" d="M519.105,13.502c12.169-2.68,29.227-0.75,45.007-0.75
	c24.169,0,44.97-4.153,52.507,11.251c6.13,12.528,2.25,27.819,2.25,45.006c0,26.115,3.55,50.889-12.751,57.758
	c-10.645,4.485-31.534,1.5-45.007,1.5c-25.734,0-51.955,4.468-57.758-15.002c-3.957-13.276-0.75-28.792-0.75-44.256
	C502.604,39.948,497.54,18.251,519.105,13.502z M540.108,57.008c1.75,0,3.501,0,5.251,0c-1.919-16.421,3.863-25.141,6.001-37.505
	c-9.081-1.58-4.824,10.178-9.001,13.501c-1.614-4.136-2.689-8.813-3.751-13.501c-1.75,0-3.501,0-5.251,0
	C536.09,31.523,541.766,40.599,540.108,57.008z M555.86,57.008c11.794,6.011,13.181-14.255,10.502-24.753
	C552.428,16.604,546.243,52.106,555.86,57.008z M573.113,57.008c5.744-0.107,5.914-2.329,12.752,0c0-9.251,0-18.502,0-27.754
	c-1.5,0-3.001,0-4.501,0c-3.576,5.926,4.09,23.093-5.251,23.253c0-7.751,0-15.502,0-23.253c-1.5,0-3,0-4.5,0
	C572.438,38.181,569.855,50.515,573.113,57.008z M524.356,65.259c-6.423,4.961-7.343,45.003-0.75,51.007
	c6.784,6.178,24.403,3,36.755,3c11.712,0,31.785,2.208,37.505-3c7.849-7.147,5.534-46.153-0.75-51.007
	c-6.514-5.032-45.148-2.744-55.508-2.25C536.958,63.23,529.351,61.401,524.356,65.259z"/>
<path fill-rule="evenodd" clip-rule="evenodd" fill="#015581" d="M533.357,19.503c1.75,0,3.501,0,5.251,0
	c1.062,4.689,2.137,9.365,3.751,13.501c4.177-3.323-0.08-15.081,9.001-13.501c-2.138,12.364-7.92,21.084-6.001,37.505
	c-1.75,0-3.501,0-5.251,0C541.766,40.599,536.09,31.523,533.357,19.503z"/>
<path fill-rule="evenodd" clip-rule="evenodd" fill="#015581" d="M566.362,32.254c2.679,10.499,1.292,30.764-10.502,24.753
	C546.243,52.106,552.428,16.604,566.362,32.254z M560.361,52.507c2.85-3.262,1.574-14.277,0.75-18.752
	c-0.959-0.042-1.039-0.961-2.25-0.75C557.233,36.329,554.78,51.588,560.361,52.507z"/>
<path fill-rule="evenodd" clip-rule="evenodd" fill="#015581" d="M571.613,29.254c1.5,0,3,0,4.5,0c0,7.751,0,15.502,0,23.253
	c9.341-0.161,1.675-17.328,5.251-23.253c1.5,0,3.001,0,4.501,0c0,9.251,0,18.503,0,27.754c-6.838-2.329-7.008-0.107-12.752,0
	C569.855,50.515,572.438,38.181,571.613,29.254z"/>
<path fill-rule="evenodd" clip-rule="evenodd" fill="#FFFFFF" d="M558.861,33.004c1.211-0.211,1.291,0.709,2.25,0.75
	c0.824,4.475,2.1,15.49-0.75,18.752C554.78,51.588,557.233,36.329,558.861,33.004z"/>
<path fill-rule="evenodd" clip-rule="evenodd" fill="#015581" d="M541.608,63.009c10.359-0.493,48.994-2.782,55.508,2.25
	c6.284,4.854,8.599,43.86,0.75,51.007c-5.72,5.208-25.793,3-37.505,3c-12.352,0-29.971,3.178-36.755-3
	c-6.593-6.004-5.673-46.046,0.75-51.007C529.351,61.401,536.958,63.23,541.608,63.009z M525.106,76.511
	c0.78,1.721,5.356-0.355,6.001,1.5c0,10.252,0,20.503,0,30.755c2,0,4,0,6.001,0c0-10.502,0-21.003,0-31.505
	c2.52-0.231,6.502,1.001,6.001-2.25c0-1,0-2,0-3C538.512,72.03,523.007,67.324,525.106,76.511z M562.611,108.766
	c6.533-2.104,6.771,1.403,12.752,0c2.209-6.338,2.985-22.537-0.75-27.754c-3.473-1.423-5.414,2.52-6.751,0.75
	c-0.783-3.468,1.953-10.455-2.25-10.502c-0.5,0-1,0-1.5,0C560.676,80.826,563.564,96.716,562.611,108.766z M544.609,108.766
	c3.502,1.931,6.247-0.508,8.251-2.251c-1.089,3.59,3.137,1.864,5.251,2.251c0-9.252,0-18.503,0-27.754c-1.75,0-3.501,0-5.251,0
	c-1.645,7.356,3.775,21.777-3.751,23.253c-0.457-7.544,0.942-16.944-0.75-23.253c-1.5,0-3,0-4.5,0
	C544.276,90.096,542.973,100.9,544.609,108.766z M583.614,81.762c-4.959,7.432-5.386,28.033,5.251,27.754
	c3.854-0.102,9.033-4.241,6.751-10.502c-1.25,0-2.5,0-3.75,0c-3.162-0.411,0.363,5.864-3.001,5.251
	c-4.065,1.036-3.521-6.441-2.25-8.251c3.25,0,6.501,0,9.751,0c0.461-6.212-0.475-11.027-3-14.252
	C590.856,80.694,586.124,80.694,583.614,81.762z"/>
<path fill-rule="evenodd" clip-rule="evenodd" fill="#FFFFFF" d="M543.109,72.01c0,1,0,2,0,3c0.501,3.252-3.481,2.02-6.001,2.25
	c0,10.502,0,21.003,0,31.505c-2.001,0-4.001,0-6.001,0c0-10.252,0-20.503,0-30.755c-0.645-1.855-5.221,0.221-6.001-1.5
	C523.007,67.324,538.512,72.03,543.109,72.01z"/>
<path fill-rule="evenodd" clip-rule="evenodd" fill="#FFFFFF" d="M564.112,71.26c0.5,0,1,0,1.5,0
	c4.203,0.047,1.467,7.034,2.25,10.502c1.337,1.77,3.278-2.173,6.751-0.75c3.735,5.217,2.959,21.416,0.75,27.754
	c-5.98,1.403-6.219-2.104-12.752,0C563.564,96.716,560.676,80.826,564.112,71.26z M570.112,104.265
	c2.975-3.138,1.485-14.366,0.751-18.753c-0.751,0-1.501,0-2.251,0C568.241,89.775,565.574,102.448,570.112,104.265z"/>
<path fill-rule="evenodd" clip-rule="evenodd" fill="#FFFFFF" d="M543.859,81.012c1.5,0,3,0,4.5,0
	c1.692,6.309,0.293,15.709,0.75,23.253c7.526-1.476,2.106-15.896,3.751-23.253c1.75,0,3.501,0,5.251,0c0,9.251,0,18.502,0,27.754
	c-2.114-0.387-6.34,1.339-5.251-2.251c-2.004,1.743-4.749,4.182-8.251,2.251C542.973,100.9,544.276,90.096,543.859,81.012z"/>
<path fill-rule="evenodd" clip-rule="evenodd" fill="#FFFFFF" d="M593.366,81.762c2.525,3.225,3.461,8.04,3,14.252
	c-3.25,0-6.501,0-9.751,0c-1.271,1.81-1.815,9.287,2.25,8.251c3.364,0.613-0.161-5.662,3.001-5.251c1.25,0,2.5,0,3.75,0
	c2.282,6.261-2.896,10.4-6.751,10.502c-10.637,0.279-10.21-20.322-5.251-27.754C586.124,80.694,590.856,80.694,593.366,81.762z
	 M585.865,91.513c1.75,0,3.5,0,5.25,0C592.712,84.065,584.27,84.065,585.865,91.513z"/>
<path fill-rule="evenodd" clip-rule="evenodd" fill="#015581" d="M568.612,85.512c0.75,0,1.5,0,2.251,0
	c0.734,4.387,2.224,15.615-0.751,18.753C565.574,102.448,568.241,89.775,568.612,85.512z"/>
<path fill-rule="evenodd" clip-rule="evenodd" fill="#015581" d="M591.115,91.513c-1.75,0-3.5,0-5.25,0
	C584.27,84.065,592.712,84.065,591.115,91.513z"/>
</svg>
