<?xml version="1.0" encoding="utf-8"?>
<!-- Generator: Adobe Illustrator 13.0.0, SVG Export Plug-In  -->
<!DOCTYPE svg PUBLIC "-//W3C//DTD SVG 1.1//EN" "http://www.w3.org/Graphics/SVG/1.1/DTD/svg11.dtd" [
	<!ENTITY ns_flows "http://ns.adobe.com/Flows/1.0/">
]>
<svg version="1.1"
	 xmlns="http://www.w3.org/2000/svg" xmlns:xlink="http://www.w3.org/1999/xlink" xmlns:a="http://ns.adobe.com/AdobeSVGViewerExtensions/3.0/"
	 x="0px" y="0px" width="153px" height="138px" viewBox="321.533 1.5 153 138" enable-background="new 321.533 1.5 153 138"
	 xml:space="preserve">
<defs>
</defs>
<path fill-rule="evenodd" clip-rule="evenodd" fill="#015581" d="M0.783,0c275.8,0,551.56,0,827.365,0c0,52.757,0,105.515,0,158.272
	c-276.047,0-552.057,0-828.115,0c0-52.008,0-104.015,0-156.022C-0.031,1.186-0.091,0.126,0.783,0z M132.802,70.51
	c0-14.821,1.467-30.821,0-39.755c-3.811-23.209-30.208-18.002-55.508-18.002c-13.958,0-31.171-2.07-43.506,0
	C11.835,16.437,16.536,42.074,16.536,69.76c0,15.019-1.941,29.765,0,40.506c4.699,25.997,32.938,15.944,62.258,18.002
	c0-15.002,0-30.004,0-45.006c-5,0-10.001,0-15.002,0c0.494-5.507-0.991-12.993,0.75-17.252c4.751,0,9.501,0,14.252,0
	c-4.179-27.237,9.258-40.675,35.255-35.255c-0.492,4.759,0.989,11.49-0.75,15.002c-5.938-0.187-11.609-0.108-15.002,2.25
	c-2.777,3.724-1.002,12-1.5,18.002c5.75,0,11.501,0,17.252,0c-1.872,4.88-0.87,12.632-3,17.252c-4.751,0-9.501,0-14.252,0
	c0,15.002,0,30.004,0,45.006C137.027,133.7,132.802,107.253,132.802,70.51z M178.558,69.01c0,15.464-3.207,30.979,0.75,44.256
	c5.803,19.47,32.024,15.002,57.758,15.002c13.473,0,34.362,2.985,45.006-1.5c16.301-6.869,12.751-31.643,12.751-57.758
	c0-17.188,3.879-32.479-2.25-45.006c-7.538-15.405-28.338-11.251-52.507-11.251c-15.78,0-32.837-1.93-45.006,0.75
	C173.495,18.251,178.558,39.948,178.558,69.01z M340.581,69.01c0,15.464-3.207,30.979,0.75,44.256
	c5.803,19.47,32.023,15.002,57.758,15.002c13.473,0,34.362,2.985,45.006-1.5c16.301-6.869,12.752-31.643,12.752-57.758
	c0-17.188,3.88-32.479-2.25-45.006c-7.537-15.405-28.338-11.251-52.507-11.251c-15.78,0-32.837-1.93-45.006,0.75
	C335.517,18.251,340.581,39.948,340.581,69.01z M502.604,69.01c0,15.464-3.207,30.979,0.75,44.256
	c5.803,19.47,32.023,15.002,57.758,15.002c13.473,0,34.362,2.985,45.007-1.5c16.301-6.869,12.751-31.643,12.751-57.758
	c0-17.188,3.88-32.479-2.25-45.006c-7.537-15.405-28.338-11.251-52.507-11.251c-15.78,0-32.838-1.93-45.007,0.75
	C497.54,18.251,502.604,39.948,502.604,69.01z M664.626,66.759c0,15.254-0.211,37.61,6.001,47.256
	c9.076,14.095,28.5,14.252,51.757,14.252c18.603,0,33.1,1.083,43.506-5.25c15.449-9.403,15.003-30.308,15.003-56.258
	c0-16.42-0.27-34.094-8.252-43.506C761.17,9.727,723.42,9.848,694.63,13.502C666.487,17.074,664.626,38.971,664.626,66.759z"/>
<path fill-rule="evenodd" clip-rule="evenodd" fill="#FFFFFF" d="M357.083,13.502c12.169-2.68,29.227-0.75,45.006-0.75
	c24.169,0,44.97-4.153,52.507,11.251c6.13,12.528,2.25,27.819,2.25,45.006c0,26.115,3.549,50.889-12.752,57.758
	c-10.644,4.485-31.533,1.5-45.006,1.5c-25.734,0-51.955,4.468-57.758-15.002c-3.957-13.276-0.75-28.792-0.75-44.256
	C340.581,39.948,335.517,18.251,357.083,13.502z M377.336,63.009c-3.266-0.153-6.135-1.531-9.001,0
	c-1.965,8.466,8.321,4.681,9.001,10.501c-2.25,9.001-11.503,11-17.252,16.502c2.684,4.316,11.835,2.167,12.001,9.001
	c11.834-3.392,17.149,6.097,24.753,6.751c9.64,0.83,16.713-10.131,28.504-6.751c0.166-6.834,9.448-4.553,12.001-9.001
	c-5.814-5.687-15.559-7.444-17.252-17.252c1.297-4.454,9.761-1.741,9.001-8.251c-1.164-3.991-6.052-1.314-9.751-1.5
	C430.189,23.809,367.524,25.054,377.336,63.009z"/>
<path fill-rule="evenodd" clip-rule="evenodd" fill="#015581" d="M419.342,63.009c3.699,0.186,8.587-2.491,9.751,1.5
	c0.76,6.51-7.704,3.798-9.001,8.251c1.693,9.808,11.438,11.566,17.252,17.252c-2.553,4.448-11.835,2.167-12.001,9.001
	c-11.792-3.38-18.864,7.581-28.504,6.751c-7.604-0.654-12.919-10.143-24.753-6.751c-0.167-6.834-9.317-4.685-12.001-9.001
	c5.75-5.502,15.002-7.501,17.252-16.502c-0.68-5.821-10.966-2.035-9.001-10.501c2.867-1.531,5.736-0.153,9.001,0
	C367.524,25.054,430.189,23.809,419.342,63.009z"/>
</svg>
